<svg xmlns="http://www.w3.org/2000/svg" xmlns:svg="http://www.w3.org/2000/svg" id="svg2" width="343.904" height="327.301" version="1.1" xml:space="preserve"><metadata id="metadata8"/><defs id="defs6"><clipPath id="clipPath18" clipPathUnits="userSpaceOnUse"><path id="path20" d="m 0,0 113.3881,0 0,107.4848 L 0,107.4848 0,0 z"/></clipPath></defs><g id="g10" transform="matrix(1.25,0,0,-1.25,101.08442,230.82846)"><g id="g12" transform="matrix(2.25,0,0,2.25,-70.867537,-67.177987)"><g id="g14"><g id="g16" clip-path="url(#clipPath18)"><g id="g22" transform="translate(0,107.4848)"><g id="g24" transform="translate(0,-102.39572)"><path d="M 0,-4.98907 0,0 l 113.38806,0 0,-4.98907 -113.38806,0 z" style="fill:#e6e6e6;fill-opacity:1;fill-rule:nonzero;stroke:none" id="path26"/><path d="m 0,97.74051 0,3.85519 113.38806,0 0,-3.85519 -113.38806,0 z" style="fill:#e6e6e6;fill-opacity:1;fill-rule:nonzero;stroke:none" id="path28"/><path d="m 75.51645,17.23499 c 0.9071,-9.07105 7.03006,-18.59565 17.68854,-18.59565 4.7623,0 18.59564,3.17487 18.59564,21.54373 l 0,12.69947 -5.6694,0 0,-12.69947 c 0,-13.15301 -5.66941,-14.51367 -8.16394,-14.51367 -7.48362,0 -8.39072,10.20493 -8.39072,11.33881 l 0,45.35522 c 0,9.5246 0,18.36887 -8.16394,26.75959 -8.84427,8.84427 -20.18308,12.47268 -31.06833,12.47268 -18.59564,0 -34.2432,-10.65847 -34.2432,-25.6257 0,-6.80328 4.53553,-10.65848 10.4317,-10.65848 6.34974,0 10.43171,4.53553 10.43171,10.43171 0,2.72131 -1.13388,10.20492 -11.56558,10.4317 6.12295,7.93716 17.23498,10.4317 24.49182,10.4317 11.11203,0 24.03827,-8.84427 24.03827,-29.02735 l 0,-8.39071 C 62.36343,58.50824 46.4891,57.82791 32.20221,51.02463 15.194,43.31424 9.5246,31.52188 9.5246,21.54373 c 0,-18.36886 21.99728,-24.03827 36.28418,-24.03827 14.96722,0 25.39892,9.07104 29.70767,19.72953 z" style="fill:#b3b3b3;fill-opacity:1;fill-rule:nonzero;stroke:none" id="path30"/><path d="m 73.92902,54.42627 0,-22.67761 c 0,-21.54373 -16.32788,-29.25412 -26.53281,-29.25412 -11.11203,0 -20.40985,7.93716 -20.40985,19.27597 0,12.47269 9.5246,31.2951 46.94266,32.65576 z" style="fill:#fff;fill-opacity:1;fill-rule:nonzero;stroke:none" id="path32"/><path d="m 74.71645,16.43498 1.6,0 0,1.60001 -1.6,0 0,-1.60001 z" style="fill:#000;fill-opacity:1;fill-rule:nonzero;stroke:none" id="path34"/><path d="m 92.40498,-2.16066 1.60001,0 0,1.60001 -1.60001,0 0,-1.60001 z" style="fill:#000;fill-opacity:1;fill-rule:nonzero;stroke:none" id="path36"/><path d="m 111.00063,19.38307 1.6,0 0,1.60001 -1.6,0 0,-1.60001 z" style="fill:#000;fill-opacity:1;fill-rule:nonzero;stroke:none" id="path38"/><path d="m 111.00063,32.08253 1.6,0 0,1.60001 -1.6,0 0,-1.60001 z" style="fill:#000;fill-opacity:1;fill-rule:nonzero;stroke:none" id="path40"/><path d="m 105.33122,32.08253 1.60001,0 0,1.60001 -1.60001,0 0,-1.60001 z" style="fill:#000;fill-opacity:1;fill-rule:nonzero;stroke:none" id="path42"/><path d="m 105.33122,19.38307 1.60001,0 0,1.60001 -1.60001,0 0,-1.60001 z" style="fill:#000;fill-opacity:1;fill-rule:nonzero;stroke:none" id="path44"/><path d="m 97.16728,4.8694 1.60001,0 0,1.6 -1.60001,0 0,-1.6 z" style="fill:#000;fill-opacity:1;fill-rule:nonzero;stroke:none" id="path46"/><path d="m 88.77657,16.2082 1.6,0 0,1.60001 -1.6,0 0,-1.60001 z" style="fill:#000;fill-opacity:1;fill-rule:nonzero;stroke:none" id="path48"/><path d="m 88.77657,61.56343 1.6,0 0,1.60001 -1.6,0 0,-1.60001 z" style="fill:#000;fill-opacity:1;fill-rule:nonzero;stroke:none" id="path50"/><path d="m 80.61263,88.32301 1.6,0 0,1.60001 -1.6,0 0,-1.60001 z" style="fill:#000;fill-opacity:1;fill-rule:nonzero;stroke:none" id="path52"/><path d="m 49.5443,100.7957 1.6,0 0,1.6 -1.6,0 0,-1.6 z" style="fill:#000;fill-opacity:1;fill-rule:nonzero;stroke:none" id="path54"/><path d="m 15.3011,75.17 1.60001,0 0,1.6 -1.60001,0 0,-1.6 z" style="fill:#000;fill-opacity:1;fill-rule:nonzero;stroke:none" id="path56"/><path d="m 25.7328,64.51152 1.60001,0 0,1.60001 -1.60001,0 0,-1.60001 z" style="fill:#000;fill-opacity:1;fill-rule:nonzero;stroke:none" id="path58"/><path d="m 36.1645,74.94322 1.60001,0 0,1.60001 -1.60001,0 0,-1.60001 z" style="fill:#000;fill-opacity:1;fill-rule:nonzero;stroke:none" id="path60"/><path d="m 24.59892,85.37492 1.60001,0 0,1.60001 -1.60001,0 0,-1.60001 z" style="fill:#000;fill-opacity:1;fill-rule:nonzero;stroke:none" id="path62"/><path d="m 49.09074,95.80663 1.60001,0 0,1.6 -1.60001,0 0,-1.6 z" style="fill:#000;fill-opacity:1;fill-rule:nonzero;stroke:none" id="path64"/><path d="m 73.12901,66.77928 1.60001,0 0,1.60001 -1.60001,0 0,-1.60001 z" style="fill:#000;fill-opacity:1;fill-rule:nonzero;stroke:none" id="path66"/><path d="m 73.12901,58.38857 1.60001,0 0,1.6 -1.60001,0 0,-1.6 z" style="fill:#000;fill-opacity:1;fill-rule:nonzero;stroke:none" id="path68"/><path d="m 31.4022,50.22462 1.60001,0 0,1.60001 -1.60001,0 0,-1.60001 z" style="fill:#000;fill-opacity:1;fill-rule:nonzero;stroke:none" id="path70"/><path d="m 8.7246,20.74373 1.6,0 0,1.6 -1.6,0 0,-1.6 z" style="fill:#000;fill-opacity:1;fill-rule:nonzero;stroke:none" id="path72"/><path d="m 45.00877,-3.29454 1.60001,0 0,1.60001 -1.60001,0 0,-1.60001 z" style="fill:#000;fill-opacity:1;fill-rule:nonzero;stroke:none" id="path74"/><path d="m 74.71645,16.43498 1.6,0 0,1.60001 -1.6,0 0,-1.60001 z" style="fill:#000;fill-opacity:1;fill-rule:nonzero;stroke:none" id="path76"/><path d="m 73.12901,53.62627 1.60001,0 0,1.6 -1.60001,0 0,-1.6 z" style="fill:#000;fill-opacity:1;fill-rule:nonzero;stroke:none" id="path78"/><path d="m 73.12901,30.94865 1.60001,0 0,1.60001 -1.60001,0 0,-1.60001 z" style="fill:#000;fill-opacity:1;fill-rule:nonzero;stroke:none" id="path80"/><path d="m 46.5962,1.69453 1.60001,0 0,1.60001 -1.60001,0 0,-1.60001 z" style="fill:#000;fill-opacity:1;fill-rule:nonzero;stroke:none" id="path82"/><path d="m 26.18636,20.9705 1.6,0 0,1.60001 -1.6,0 0,-1.60001 z" style="fill:#000;fill-opacity:1;fill-rule:nonzero;stroke:none" id="path84"/><path d="m 73.12901,53.62627 1.60001,0 0,1.6 -1.60001,0 0,-1.6 z" style="fill:#000;fill-opacity:1;fill-rule:nonzero;stroke:none" id="path86"/><path d="m 0,-4.88907 0,-0.20001 0.20001,0 113.18805,0 0,0.20001 -0.20001,0 -113.18805,0 z" style="fill:#000;fill-opacity:1;fill-rule:nonzero;stroke:none" id="path88"/><path d="m 0,0.1 0,-0.2 0.20001,0 113.18805,0 0,0.2 -0.20001,0 L 0,0.1 z" style="fill:#000;fill-opacity:1;fill-rule:nonzero;stroke:none" id="path90"/><path d="m 0,97.84052 0,-0.20002 0.20001,0 113.18805,0 0,0.20002 -0.20001,0 -113.18805,0 z" style="fill:#000;fill-opacity:1;fill-rule:nonzero;stroke:none" id="path92"/><path d="m 0,101.69571 0,-0.20001 0.20001,0 113.18805,0 0,0.20001 -0.20001,0 -113.18805,0 z" style="fill:#000;fill-opacity:1;fill-rule:nonzero;stroke:none" id="path94"/></g></g></g></g></g></g></svg>