<svg xmlns="http://www.w3.org/2000/svg" xmlns:svg="http://www.w3.org/2000/svg" id="svg2" width="768.719" height="264.016" version="1.1"><metadata id="metadata7"/><g id="layer5" style="display:inline" transform="translate(25.859793,-1.4733296)"><path style="fill:none;stroke:#000;stroke-width:.81px;stroke-linecap:butt;stroke-linejoin:miter;stroke-opacity:1" id="path3097" d="m 28.576594,25.607249 544.278496,0"/><path style="fill:none;stroke:#000;stroke-width:.78499144px;stroke-linecap:butt;stroke-linejoin:miter;stroke-opacity:1" id="path3101" d="m 62.815373,37.595016 511.188407,0"/><path id="path3103" d="m 62.815373,87.410016 511.188407,0" style="fill:none;stroke:#000;stroke-width:.78499144px;stroke-linecap:butt;stroke-linejoin:miter;stroke-opacity:1"/><path style="fill:none;stroke:#000;stroke-width:.78499144px;stroke-linecap:butt;stroke-linejoin:miter;stroke-opacity:1" id="path3107" d="m 62.815373,90.083016 511.188407,0"/><path id="path3109" d="m 29.077254,196.10683 544.926526,0" style="fill:none;stroke:#000;stroke-width:.81048203px;stroke-linecap:butt;stroke-linejoin:miter;stroke-opacity:1"/><path style="fill:none;stroke:#000;stroke-width:.81048203px;stroke-linecap:butt;stroke-linejoin:miter;stroke-opacity:1" id="path3111" d="m 29.077254,252.49052 544.926526,0"/><text xml:space="preserve" style="font-size:19.44000053px;font-style:normal;font-variant:normal;font-weight:400;font-stretch:normal;text-align:start;line-height:125%;letter-spacing:0;word-spacing:0;writing-mode:lr-tb;text-anchor:start;fill:#000;fill-opacity:1;stroke:none;font-family:Linux Libertine O;-inkscape-font-specification:Linux Libertine O" id="text3113" x="577.391" y="27.542"><tspan id="tspan3117" x="577.391" y="27.542">ascender line</tspan></text><text xml:space="preserve" style="font-size:19.44000053px;font-style:normal;font-variant:normal;font-weight:400;font-stretch:normal;text-align:start;line-height:125%;letter-spacing:0;word-spacing:0;writing-mode:lr-tb;text-anchor:start;fill:#000;fill-opacity:1;stroke:none;font-family:Linux Libertine O;-inkscape-font-specification:Linux Libertine O" id="text3125" x="577.385" y="46.547"><tspan id="tspan3127" x="577.385" y="46.547">cap line</tspan></text><text xml:space="preserve" style="font-size:19.44000053px;font-style:normal;font-variant:normal;font-weight:400;font-stretch:normal;text-align:start;line-height:125%;letter-spacing:0;word-spacing:0;writing-mode:lr-tb;text-anchor:start;fill:#000;fill-opacity:1;stroke:none;font-family:Linux Libertine O;-inkscape-font-specification:Linux Libertine O" id="text3129" x="577.488" y="83.033"><tspan id="tspan3131" x="577.488" y="83.033">x-height overshoot</tspan></text><text xml:space="preserve" style="font-size:19.44000053px;font-style:normal;font-variant:normal;font-weight:400;font-stretch:normal;text-align:start;line-height:125%;letter-spacing:0;word-spacing:0;writing-mode:lr-tb;text-anchor:start;fill:#000;fill-opacity:1;stroke:none;font-family:Linux Libertine O;-inkscape-font-specification:Linux Libertine O" id="text3133" x="577.456" y="102.54"><tspan id="tspan3135" x="577.456" y="102.54">mean line</tspan></text><text xml:space="preserve" style="font-size:19.44000053px;font-style:normal;font-variant:normal;font-weight:400;font-stretch:normal;text-align:start;line-height:125%;letter-spacing:0;word-spacing:0;writing-mode:lr-tb;text-anchor:start;fill:#000;fill-opacity:1;stroke:none;font-family:Linux Libertine O;-inkscape-font-specification:Linux Libertine O" id="text3137" x="577.573" y="192.01"><tspan id="tspan3139" x="577.573" y="192.01">base line</tspan></text><text xml:space="preserve" style="font-size:19.44000053px;font-style:normal;font-variant:normal;font-weight:400;font-stretch:normal;text-align:start;line-height:125%;letter-spacing:0;word-spacing:0;writing-mode:lr-tb;text-anchor:start;fill:#000;fill-opacity:1;stroke:none;font-family:Linux Libertine O;-inkscape-font-specification:Linux Libertine O" id="text3141" x="577.372" y="252.018"><tspan id="tspan3143" x="577.372" y="252.018">descender line</tspan></text><path style="fill:none;stroke:#000;stroke-width:.78499144px;stroke-linecap:butt;stroke-linejoin:miter;stroke-opacity:1" id="path3945" d="m 62.815373,198.00469 511.188407,0"/><text xml:space="preserve" style="font-size:19.44000053px;font-style:normal;font-variant:normal;font-weight:400;font-stretch:normal;text-align:start;line-height:125%;letter-spacing:0;word-spacing:0;writing-mode:lr-tb;text-anchor:start;fill:#000;fill-opacity:1;stroke:none;font-family:Linux Libertine O;-inkscape-font-specification:Linux Libertine O" id="text3947" x="577.573" y="213.002"><tspan id="tspan3949" x="577.573" y="213.002">base line overshoot</tspan></text></g><g id="layer7" style="display:inline" transform="translate(-57.620538,-25.141333)"><path style="fill:gray;stroke:#ccc;stroke-width:1.81121504px;stroke-linecap:butt;stroke-linejoin:miter;stroke-opacity:1" id="path3147" d="m 632.13857,114.15626 0,105.21899"/><text xml:space="preserve" style="font-size:19.44000053px;font-style:italic;font-variant:normal;font-weight:400;font-stretch:normal;text-align:start;line-height:125%;letter-spacing:0;word-spacing:0;writing-mode:lr-tb;text-anchor:start;fill:#000;fill-opacity:1;stroke:none;font-family:Linux Libertine O;-inkscape-font-specification:Linux Libertine O Italic" id="text3917" x="634.651" y="168.77"><tspan id="tspan3919" x="634.651" y="168.77">x-height</tspan></text><path style="fill:none;stroke:#ccc;stroke-width:1.8073405px;stroke-linecap:butt;stroke-linejoin:miter;stroke-opacity:1" id="path3923" d="m 426.95049,61.701665 0,157.673585"/><text xml:space="preserve" style="font-size:19.44000053px;font-style:italic;font-variant:normal;font-weight:400;font-stretch:normal;text-align:start;line-height:125%;letter-spacing:0;word-spacing:0;writing-mode:lr-tb;text-anchor:start;fill:#000;fill-opacity:1;stroke:none;font-family:Linux Libertine O;-inkscape-font-specification:Linux Libertine O Italic" id="text3925" x="342.973" y="86.131"><tspan id="tspan3927" x="342.973" y="86.131">cap height</tspan></text><path style="fill:none;stroke:#ccc;stroke-width:1.81121504px;stroke-linecap:butt;stroke-linejoin:miter;stroke-opacity:1" id="path3929" d="m 139.59267,49.275244 0,170.100006"/><text xml:space="preserve" style="font-size:19.44000053px;font-style:italic;font-variant:normal;font-weight:400;font-stretch:normal;text-align:start;line-height:125%;letter-spacing:0;word-spacing:0;writing-mode:lr-tb;text-anchor:start;fill:#000;fill-opacity:1;stroke:none;font-family:Linux Libertine O;-inkscape-font-specification:Linux Libertine O Italic" id="text3933" x="68.604" y="164.314"><tspan id="tspan3935" x="68.604" y="164.314">ascender</tspan></text><text xml:space="preserve" style="font-size:19.44000053px;font-style:italic;font-variant:normal;font-weight:400;font-stretch:normal;text-align:start;line-height:125%;letter-spacing:0;word-spacing:0;writing-mode:lr-tb;text-anchor:start;fill:#000;fill-opacity:1;stroke:none;font-family:Linux Libertine O;-inkscape-font-specification:Linux Libertine O Italic" id="text3937" x="128.275" y="253.385"><tspan id="tspan3939" x="128.275" y="253.385">descender</tspan></text><path style="fill:none;stroke:#ccc;stroke-width:1.81121504px;stroke-linecap:butt;stroke-linejoin:miter;stroke-opacity:1" id="path3931" d="m 127.30282,219.37525 0,56.376"/></g><g id="layer4" style="display:inline" transform="translate(25.859791,13.826671)"><g transform="matrix(0.81,0,0,0.81,26.970771,-347.68211)" style="display:inline" id="g3054"><path d="m 538.63906,543.96218 c -7.49999,-11.39999 -4.49998,-10.2 8.7,-12 1.8,-1.8 1.8,-8.1 0,-9.9 -11.09999,0.3 -21.30001,0.6 -30.3,0.6 -8.99999,0 -14.70001,-0.3 -25.8,-0.6 -1.8,1.8 -1.8,8.1 0,9.9 10.19999,0.9 18.60001,6.00001 27,18.3 l 26.1,38.1 c 0.6,1.5 1.8,2.7 0.3,4.5 l -25.2,32.4 c -12.59998,16.19999 -18.60001,16.2 -29.1,16.8 -1.8,1.8 -1.8,8.1 0,9.9 11.09999,-0.3 10.80001,-0.6 21.6,-0.6 11.39999,0 14.10001,0.3 25.2,0.6 1.8,-1.8 1.8,-8.1 0,-9.9 -8.09999,-0.9 -13.19999,-2.70001 -6.6,-12 l 18.9,-27.3 c 2.1,-2.99999 2.70001,-3.59999 5.4,-0.6 l 17.4,24 c 11.09999,15.29999 5.69999,14.4 -3.9,15.9 -1.8,1.8 -1.8,8.1 0,9.9 11.09999,-0.3 20.40001,-0.6 31.2,-0.6 11.39999,0 14.10001,0.3 25.2,0.6 1.8,-1.8 1.8,-8.1 0,-9.9 -9.59999,-0.9 -17.10001,-0.30002 -30,-18.9 l -27,-38.1 c -1.8,-2.39999 -0.9,-3.3 0,-4.5 l 25.2,-32.1 c 11.09999,-14.09998 18.00001,-15.6 29.1,-16.5 1.8,-1.8 1.8,-8.1 0,-9.9 -7.49999,0.3 -12.30001,0.6 -21.9,0.6 -9.29999,0 -14.10001,-0.3 -25.2,-0.6 -1.8,1.8 -1.8,8.1 0,9.9 9.89999,1.5 14.69999,1.80001 7.2,12.3 l -19.5,27.3 c -1.2,1.5 -2.7,3.6 -5.7,-0.6 l -18.3,-27" style="font-size:300px;font-style:normal;font-variant:normal;font-weight:400;font-stretch:normal;text-align:start;line-height:125%;letter-spacing:0;word-spacing:0;writing-mode:lr-tb;text-anchor:start;fill:#000;fill-opacity:1;stroke:none;font-family:Linux Libertine O;-inkscape-font-specification:Linux Libertine O" id="path3000"/></g></g><g id="layer2" style="display:inline" transform="translate(25.859791,-1.4733296)"><g id="g3038" transform="matrix(0.81,0,0,0.81,26.970771,-332.38211)"><path d="m 443.375,614.76218 0,-80.4 27.9,0 c 2.7,0 6.9,-1.2 6.9,-3.9 l 0,-6 c 0,-1.2 -0.9,-1.8 -2.4,-1.8 l -32.4,0 0,-17.1 c 0,-46.19995 13.80001,-53.4 23.7,-53.4 8.99999,0 13.8,3.60001 18,14.1 2.4,5.4 5.70001,9.6 12,9.6 5.09999,0 12.3,-6.3 12.3,-12.3 0,-5.09999 -3.30001,-10.5 -9.6,-15.3 -7.79999,-5.39999 -15.60001,-6.3 -27,-6.3 -25.19997,0 -53.1,21.90005 -53.1,68.7 l 0,12 -15.3,0 c -5.39999,0 -6.9,3.60001 -6.9,6 l 0,3.9 c 0,1.5 0.3,1.8 1.5,1.8 l 20.7,0 0,80.4 c 0,24.89998 -3.30002,26.1 -19.5,27.3 -1.8,1.8 -1.8,8.1 0,9.9 12.59999,-0.3 19.20001,-0.6 31.5,-0.6 13.79999,0 22.50001,0.3 35.4,0.6 1.8,-1.8 1.8,-8.1 0,-9.9 -20.39998,-1.2 -23.7,-2.40002 -23.7,-27.3" style="font-size:300px;font-style:normal;font-variant:normal;font-weight:400;font-stretch:normal;text-align:start;line-height:125%;letter-spacing:0;word-spacing:0;writing-mode:lr-tb;text-anchor:start;fill:#000;fill-opacity:1;stroke:none;font-family:Linux Libertine O;-inkscape-font-specification:Linux Libertine O" id="path2998"/></g></g><g id="layer3" style="display:inline" transform="translate(25.859791,13.826671)"><g id="g3049" transform="matrix(0.81,0,0,0.81,26.970771,-347.68211)"><path d="m 287.51562,552.06218 c 7.8,-9.59999 21.30001,-18.6 30.3,-18.6 19.19999,0 35.7,21.60004 35.7,55.5 0,24.59998 -8.70003,55.2 -42.3,55.2 -5.39999,0 -15.9,-1.5 -21.3,-6.3 -6.29999,-5.39999 -7.2,-6.90001 -7.2,-18 l 0,-54.6 c 0,-6.29999 1.20001,-8.7 4.8,-13.2 m -4.8,-11.1 c 0,-8.99999 -1.2,-16.5 -2.4,-19.8 -0.89999,-1.2 -1.2,-2.4 -3.6,-2.4 -8.39999,3.3 -17.10002,6.00001 -37.8,8.7 -0.59999,1.8 1e-5,6.6 0.6,8.4 16.19999,1.5 19.5,3.00002 19.5,20.4 l 0,128.1 c 0,24.89998 -3.30001,26.4 -21.6,27.3 -1.79999,1.8 -1.79999,8.1 0,9.9 12.59999,-0.3 20.40002,-0.6 33.6,-0.6 14.09999,0 23.40002,0.3 36.3,0.6 1.8,-1.8 1.8,-8.1 0,-9.9 -21.29997,-1.2 -24.6,-2.40002 -24.6,-27.3 l 0,-32.4 c 0,-3.89999 0.90001,-3.3 4.2,-2.1 7.2,3 16.50001,4.5 26.1,4.5 16.79999,0 31.80002,-5.10001 44.10001,-16.8 14.09998,-13.79998 22.19999,-32.40002 22.19999,-56.7 0,-31.79997 -22.50003,-61.2 -53.1,-61.2 -14.09998,0 -29.40001,8.70002 -41.09999,22.5 -0.9,1.2 -2.40001,1.2 -2.40001,-1.2" style="font-size:300px;font-style:normal;font-variant:normal;font-weight:400;font-stretch:normal;text-align:start;line-height:125%;letter-spacing:0;word-spacing:0;writing-mode:lr-tb;text-anchor:start;fill:#000;fill-opacity:1;stroke:none;font-family:Linux Libertine O;-inkscape-font-specification:Linux Libertine O" id="path2996"/></g></g><g id="layer1" transform="translate(-22.490208,-443.4355)" style="display:inline"><path id="path2994" style="font-size:300px;font-style:normal;font-variant:normal;font-weight:400;font-stretch:normal;text-align:start;line-height:125%;letter-spacing:0;word-spacing:0;writing-mode:lr-tb;text-anchor:start;fill:#000;fill-opacity:1;stroke:none;font-family:Linux Libertine O;-inkscape-font-specification:Linux Libertine O" d="m 157.37377,607.53743 0,-45.198 c 8.01899,0.243 15.06601,2.91601 20.169,8.991 l 38.151,48.114 c 4.85999,6.31799 8.262,12.87901 8.748,16.767 0,0.729 0.243,1.458 1.215,1.458 4.85999,-0.243 5.83201,-0.486 13.122,-0.486 9.47699,0 13.12201,0.243 24.543,0.486 1.458,-1.458 1.458,-6.561 0,-8.019 -4.37399,-0.486 -13.36501,-10e-6 -21.384,-10.206 l -53.217,-63.18 c -1.944,-2.18699 -3.159,-4.131 -3.159,-6.075 0,-1.701 0.24301,-3.40201 8.505,-11.907 l 35.721,-36.693 c 11.17799,-11.90698 20.89801,-12.393 30.618,-13.608 1.458,-1.458 1.458,-6.561 0,-8.019 -11.42099,0.243 -13.36501,0.486 -23.085,0.486 -9.71999,0 -16.03801,-0.243 -27.459,-0.486 -1.458,1.458 -1.458,6.561 0,8.019 8.74799,0.972 17.00999,1.70102 6.804,12.636 l -40.095,42.768 c -5.34599,5.589 -10.69201,8.748 -19.197,9.477 l 0,-42.768 c 0,-20.16897 4.13102,-21.384 21.141,-22.113 1.458,-1.458 1.458,-6.561 0,-8.019 -11.90699,0.243 -19.19702,0.486 -31.59,0.486 -12.14998,0 -19.19701,-0.243 -31.347,-0.486 -1.458,1.458 -1.458,6.561 0,8.019 17.00998,0.729 21.141,1.94403 21.141,22.113 l 0,97.443 c 0,20.16898 -4.13102,21.384 -21.141,22.113 -1.458,1.458 -1.458,6.561 0,8.019 11.90699,-0.243 19.19702,-0.486 31.59,-0.486 12.14998,0 19.19702,0.243 31.347,0.486 1.458,-1.458 1.458,-6.561 0,-8.019 -17.00998,-0.729 -21.141,-1.94402 -21.141,-22.113"/></g></svg>