<svg xmlns="http://www.w3.org/2000/svg" xmlns:svg="http://www.w3.org/2000/svg" id="svg2" width="786.868" height="218.472" preserveAspectRatio="xMinYMin meet" version="1.1" viewBox="0 0 787 219" xml:space="preserve"><metadata id="metadata8"/><defs id="defs6"><clipPath id="clipPath18" clipPathUnits="userSpaceOnUse"><path id="path20" d="m 0,0 203.8696,0 0,51.5949 L 0,51.5949 0,0 z"/></clipPath></defs><g id="g10" transform="matrix(1.25,0,0,-1.25,265.96965,141.48152)"><g id="g3022" transform="matrix(3,0,0,3,-203.94312,-51.592608)"><path d="m 69.91827,47.62405 c 0,-20.4093 -1.13384,-26.64547 -44.78707,-26.64547 l -13.6062,0 0,-17.57468 c 19.84237,1.70078 64.06253,1.70078 86.1726,1.70078 23.24393,0 74.83411,0 95.24341,-1.70078 l 0,17.57468 -18.70852,0 c -53.85788,0 -53.85788,7.37002 -53.85788,27.2124" style="fill:none;stroke:#000;stroke-width:.5;stroke-linecap:round;stroke-linejoin:round;stroke-miterlimit:10;stroke-opacity:1;stroke-dasharray:none" id="path26"/><path d="m 62.92077,28.34929 c -0.76412,-1.29477 -1.80494,-2.57491 -3.16662,-3.86951 1.87828,-0.04747 3.51944,0.12174 4.9753,0.49695 l -1.80868,3.37256 z" style="fill:#000;fill-opacity:1;fill-rule:nonzero;stroke:#000;stroke-width:.5;stroke-linecap:round;stroke-linejoin:round;stroke-miterlimit:10;stroke-opacity:1;stroke-dasharray:none" id="path28"/><path d="m 132.09941,26.87149 c -1.87507,-0.08679 -3.52534,0.0083 -4.99258,0.2724 0.85072,-1.22427 1.95036,-2.45843 3.33762,-3.72296 l 1.65496,3.45056 z" style="fill:#000;fill-opacity:1;fill-rule:nonzero;stroke:#000;stroke-width:.5;stroke-linecap:round;stroke-linejoin:round;stroke-miterlimit:10;stroke-opacity:1;stroke-dasharray:none" id="path30"/><path d="m 69.91827,47.62405 0,-20.4093 -1.13384,-6.23617 -43.65323,0" style="fill:none;stroke:#000;stroke-width:.5;stroke-linecap:round;stroke-linejoin:round;stroke-miterlimit:10;stroke-opacity:1;stroke-dasharray:.5,2;stroke-dashoffset:1.5" id="path32"/><path d="m 174.23249,20.97858 -53.85788,0 0,7.37002 0,19.84238" style="fill:none;stroke:#000;stroke-width:.5;stroke-linecap:round;stroke-linejoin:round;stroke-miterlimit:10;stroke-opacity:1;stroke-dasharray:.5,2;stroke-dashoffset:1.5" id="path34"/><path d="m 68.41827,46.12405 3,0 0,3 -3,0 0,-3 z" style="fill:#000;fill-opacity:1;fill-rule:nonzero;stroke:none" id="path36"/><path d="m 23.6312,19.47858 3,0 0,3 -3,0 0,-3 z" style="fill:#000;fill-opacity:1;fill-rule:nonzero;stroke:none" id="path38"/><path d="m 10.025,19.47858 3,0 0,3 -3,0 0,-3 z" style="fill:#000;fill-opacity:1;fill-rule:nonzero;stroke:none" id="path40"/><path d="m 10.025,1.9039 3,0 0,3 -3,0 0,-3 z" style="fill:#000;fill-opacity:1;fill-rule:nonzero;stroke:none" id="path42"/><path d="m 96.1976,3.60468 3,0 0,3 -3,0 0,-3 z" style="fill:#000;fill-opacity:1;fill-rule:nonzero;stroke:none" id="path44"/><path d="m 191.44101,1.9039 3,0 0,3 -3,0 0,-3 z" style="fill:#000;fill-opacity:1;fill-rule:nonzero;stroke:none" id="path46"/><path d="m 191.44101,19.47858 3,0 0,3 -3,0 0,-3 z" style="fill:#000;fill-opacity:1;fill-rule:nonzero;stroke:none" id="path48"/><path d="m 172.73249,19.47858 3,0 0,3 -3,0 0,-3 z" style="fill:#000;fill-opacity:1;fill-rule:nonzero;stroke:none" id="path50"/><path d="m 118.87461,46.69098 3,0 0,3 -3,0 0,-3 z" style="fill:#000;fill-opacity:1;fill-rule:nonzero;stroke:none" id="path52"/><path d="m 70.91827,27.21475 c 0,0.26522 -0.10536,0.51958 -0.29289,0.70711 -0.18753,0.18753 -0.44189,0.29289 -0.70711,0.29289 -0.2652,0 -0.51957,-0.10536 -0.7071,-0.29289 -0.18753,-0.18753 -0.2929,-0.44189 -0.2929,-0.70711 0,-0.26521 0.10537,-0.51957 0.2929,-0.70711 0.18753,-0.18753 0.4419,-0.29289 0.7071,-0.29289 0.26522,0 0.51958,0.10536 0.70711,0.29289 0.18753,0.18754 0.29289,0.4419 0.29289,0.70711 z" style="fill:#000;fill-opacity:1;fill-rule:nonzero;stroke:none" id="path54"/><path d="m 69.78443,20.97858 c 0,0.26521 -0.10536,0.51957 -0.2929,0.7071 -0.18753,0.18753 -0.44189,0.2929 -0.7071,0.2929 -0.26522,0 -0.51958,-0.10537 -0.70711,-0.2929 -0.18753,-0.18753 -0.29289,-0.44189 -0.29289,-0.7071 0,-0.26522 0.10536,-0.51958 0.29289,-0.70711 0.18753,-0.18753 0.44189,-0.29289 0.70711,-0.29289 0.26521,0 0.51957,0.10536 0.7071,0.29289 0.18754,0.18753 0.2929,0.44189 0.2929,0.70711 z" style="fill:#000;fill-opacity:1;fill-rule:nonzero;stroke:none" id="path56"/><path d="m 32.36737,5.10468 c 0,0.26521 -0.10536,0.51957 -0.29289,0.7071 -0.18753,0.18753 -0.44189,0.2929 -0.70711,0.2929 -0.26521,0 -0.51957,-0.10537 -0.7071,-0.2929 -0.18753,-0.18753 -0.2929,-0.44189 -0.2929,-0.7071 0,-0.26522 0.10537,-0.51958 0.2929,-0.70711 0.18753,-0.18753 0.44189,-0.29289 0.7071,-0.29289 0.26522,0 0.51958,0.10536 0.70711,0.29289 0.18753,0.18753 0.29289,0.44189 0.29289,0.70711 z" style="fill:#000;fill-opacity:1;fill-rule:nonzero;stroke:none" id="path58"/><path d="m 76.58753,5.10468 c 0,0.26521 -0.10536,0.51957 -0.2929,0.7071 -0.18753,0.18753 -0.44189,0.2929 -0.7071,0.2929 -0.26522,0 -0.51958,-0.10537 -0.70711,-0.2929 -0.18753,-0.18753 -0.29289,-0.44189 -0.29289,-0.7071 0,-0.26522 0.10536,-0.51958 0.29289,-0.70711 0.18753,-0.18753 0.44189,-0.29289 0.70711,-0.29289 0.26521,0 0.51957,0.10536 0.7071,0.29289 0.18754,0.18753 0.2929,0.44189 0.2929,0.70711 z" style="fill:#000;fill-opacity:1;fill-rule:nonzero;stroke:none" id="path60"/><path d="m 121.94153,5.10468 c 0,0.26521 -0.10536,0.51957 -0.29289,0.7071 -0.18753,0.18753 -0.4419,0.2929 -0.70711,0.2929 -0.26521,0 -0.51958,-0.10537 -0.70711,-0.2929 -0.18753,-0.18753 -0.29289,-0.44189 -0.29289,-0.7071 0,-0.26522 0.10536,-0.51958 0.29289,-0.70711 0.18753,-0.18753 0.4419,-0.29289 0.70711,-0.29289 0.26521,0 0.51958,0.10536 0.70711,0.29289 0.18753,0.18753 0.29289,0.44189 0.29289,0.70711 z" style="fill:#000;fill-opacity:1;fill-rule:nonzero;stroke:none" id="path62"/><path d="m 173.53171,5.10468 c 0,0.26521 -0.10536,0.51957 -0.29289,0.7071 -0.18753,0.18753 -0.4419,0.2929 -0.70711,0.2929 -0.26521,0 -0.51958,-0.10537 -0.70711,-0.2929 -0.18753,-0.18753 -0.29289,-0.44189 -0.29289,-0.7071 0,-0.26522 0.10536,-0.51958 0.29289,-0.70711 0.18753,-0.18753 0.4419,-0.29289 0.70711,-0.29289 0.26521,0 0.51958,0.10536 0.70711,0.29289 0.18753,0.18753 0.29289,0.44189 0.29289,0.70711 z" style="fill:#000;fill-opacity:1;fill-rule:nonzero;stroke:none" id="path64"/><path d="m 121.37461,20.97858 c 0,0.26521 -0.10537,0.51957 -0.2929,0.7071 -0.18753,0.18753 -0.44189,0.2929 -0.7071,0.2929 -0.26522,0 -0.51958,-0.10537 -0.70711,-0.2929 -0.18753,-0.18753 -0.29289,-0.44189 -0.29289,-0.7071 0,-0.26522 0.10536,-0.51958 0.29289,-0.70711 0.18753,-0.18753 0.44189,-0.29289 0.70711,-0.29289 0.26521,0 0.51957,0.10536 0.7071,0.29289 0.18753,0.18753 0.2929,0.44189 0.2929,0.70711 z" style="fill:#000;fill-opacity:1;fill-rule:nonzero;stroke:none" id="path66"/><path d="m 121.37461,28.3486 c 0,0.26522 -0.10537,0.51958 -0.2929,0.70711 -0.18753,0.18753 -0.44189,0.29289 -0.7071,0.29289 -0.26522,0 -0.51958,-0.10536 -0.70711,-0.29289 -0.18753,-0.18753 -0.29289,-0.44189 -0.29289,-0.70711 0,-0.26521 0.10536,-0.51957 0.29289,-0.7071 0.18753,-0.18754 0.44189,-0.2929 0.70711,-0.2929 0.26521,0 0.51957,0.10536 0.7071,0.2929 0.18753,0.18753 0.2929,0.44189 0.2929,0.7071 z" style="fill:#000;fill-opacity:1;fill-rule:nonzero;stroke:none" id="path68"/><text id="text72" x="59.446" y="-44.22" transform="scale(1,-1)" style="line-height:0%"><tspan id="tspan74" x="59.446" y="-44.22" style="font-variant:normal;font-weight:400;font-size:9.9626px;font-family:'Linux Libertine O';-inkscape-font-specification:'Linux Libertine O Italic';writing-mode:lr-tb;fill:#000;fill-opacity:1;fill-rule:nonzero;stroke:none;font-style:italic;font-stretch:normal">A</tspan></text><text id="text80" x="71.784" y="-17.575" transform="scale(1,-1)" style="line-height:0%"><tspan id="tspan82" x="71.784" y="-17.575" style="font-variant:normal;font-weight:400;font-size:9.9626px;font-family:'Linux Libertine O';-inkscape-font-specification:'Linux Libertine O Italic';writing-mode:lr-tb;fill:#000;fill-opacity:1;fill-rule:nonzero;stroke:none;font-style:italic;font-stretch:normal">B</tspan></text><text id="text88" x=".692" y="-17.575" transform="scale(1,-1)" style="line-height:0%"><tspan id="tspan90" x=".692" y="-17.575" style="font-variant:normal;font-weight:400;font-size:9.9626px;font-family:'Linux Libertine O';-inkscape-font-specification:'Linux Libertine O Italic';writing-mode:lr-tb;fill:#000;fill-opacity:1;fill-rule:nonzero;stroke:none;font-style:italic;font-stretch:normal">C</tspan></text><text id="text96" x="0" transform="scale(1,-1)" style="line-height:0%"><tspan id="tspan98" x="0" y="0" style="font-variant:normal;font-weight:400;font-size:9.9626px;font-family:'Linux Libertine O';-inkscape-font-specification:'Linux Libertine O Italic';writing-mode:lr-tb;fill:#000;fill-opacity:1;fill-rule:nonzero;stroke:none;font-style:italic;font-stretch:normal">D</tspan></text><text id="text104" x="195.941" transform="scale(1,-1)" style="line-height:0%"><tspan id="tspan106" x="195.941" y="0" style="font-variant:normal;font-weight:400;font-size:9.9626px;font-family:'Linux Libertine O';-inkscape-font-specification:'Linux Libertine O Italic';writing-mode:lr-tb;fill:#000;fill-opacity:1;fill-rule:nonzero;stroke:none;font-style:italic;font-stretch:normal">E</tspan></text><text id="text112" x="195.941" y="-17.575" transform="scale(1,-1)" style="line-height:0%"><tspan id="tspan114" x="195.941" y="-17.575" style="font-variant:normal;font-weight:400;font-size:9.9626px;font-family:'Linux Libertine O';-inkscape-font-specification:'Linux Libertine O Italic';writing-mode:lr-tb;fill:#000;fill-opacity:1;fill-rule:nonzero;stroke:none;font-style:italic;font-stretch:normal">F</tspan></text><text id="text120" x="109.541" y="-17.575" transform="scale(1,-1)" style="line-height:0%"><tspan id="tspan122" x="109.541" y="-17.575" style="font-variant:normal;font-weight:400;font-size:9.9626px;font-family:'Linux Libertine O';-inkscape-font-specification:'Linux Libertine O Italic';writing-mode:lr-tb;fill:#000;fill-opacity:1;fill-rule:nonzero;stroke:none;font-style:italic;font-stretch:normal">G</tspan></text><text id="text128" x="123.375" y="-44.787" transform="scale(1,-1)" style="line-height:0%"><tspan id="tspan130" x="123.375" y="-44.787" style="font-variant:normal;font-weight:400;font-size:9.9626px;font-family:'Linux Libertine O';-inkscape-font-specification:'Linux Libertine O Italic';writing-mode:lr-tb;fill:#000;fill-opacity:1;fill-rule:nonzero;stroke:none;font-style:italic;font-stretch:normal">H</tspan></text></g></g></svg>